<?xml version="1.0" encoding="UTF-8" standalone="no"?>
<!-- Created with Inkscape (http://www.inkscape.org/) -->

<svg
   width="493"
   height="312"
   viewBox="0 0 130.43958 82.55"
   version="1.1"
   id="svg5"
   inkscape:version="1.2.2 (b0a8486541, 2022-12-01)"
   sodipodi:docname="dialog.svg"
   xml:space="preserve"
   xmlns:inkscape="http://www.inkscape.org/namespaces/inkscape"
   xmlns:sodipodi="http://sodipodi.sourceforge.net/DTD/sodipodi-0.dtd"
   xmlns="http://www.w3.org/2000/svg"
   xmlns:svg="http://www.w3.org/2000/svg"
   xmlns:rdf="http://www.w3.org/1999/02/22-rdf-syntax-ns#"
   xmlns:cc="http://creativecommons.org/ns#"
   xmlns:dc="http://purl.org/dc/elements/1.1/"><title
     id="title50">PMSExp dialog</title><sodipodi:namedview
     id="namedview7"
     pagecolor="#ffffff"
     bordercolor="#666666"
     borderopacity="1.0"
     inkscape:showpageshadow="2"
     inkscape:pageopacity="0.0"
     inkscape:pagecheckerboard="0"
     inkscape:deskcolor="#d1d1d1"
     inkscape:document-units="px"
     showgrid="false"
     inkscape:zoom="1.3639184"
     inkscape:cx="93.84726"
     inkscape:cy="184.3952"
     inkscape:window-width="1366"
     inkscape:window-height="736"
     inkscape:window-x="0"
     inkscape:window-y="0"
     inkscape:window-maximized="1"
     inkscape:current-layer="layer3" /><defs
     id="defs2"><rect
       x="36.672754"
       y="259.46598"
       width="171.43998"
       height="40.292709"
       id="rect5337" /><rect
       x="221.87929"
       y="113.87571"
       width="187.57056"
       height="125.82778"
       id="rect4577" /><rect
       x="37.914977"
       y="238.85305"
       width="174.41127"
       height="52.751182"
       id="rect4485" /><linearGradient
       id="linearGradient3036"
       inkscape:swatch="solid"><stop
         style="stop-color:#008080;stop-opacity:1;"
         offset="0"
         id="stop3034" /></linearGradient><linearGradient
       id="linearGradient915"
       inkscape:swatch="gradient"><stop
         style="stop-color:#2db197;stop-opacity:1;"
         offset="0"
         id="stop911" /><stop
         style="stop-color:#2db197;stop-opacity:0;"
         offset="1"
         id="stop913" /></linearGradient><marker
       style="overflow:visible"
       id="marker3274"
       refX="0.0"
       refY="0.0"
       orient="auto"
       inkscape:stockid="EmptyDiamondM"
       inkscape:isstock="true"><path
         transform="scale(0.4)"
         style="fill-rule:evenodd;fill:#b93120;stroke:#ffffff;stroke-width:1pt;stroke-opacity:1;fill-opacity:1"
         d="M 0,-7.0710768 L -7.0710894,0 L 0,7.0710589 L 7.0710462,0 L 0,-7.0710768 z "
         id="path3272" /></marker><marker
       style="overflow:visible"
       id="marker3344"
       refX="0.0"
       refY="0.0"
       orient="auto"
       inkscape:stockid="EmptyDiamondM"
       inkscape:isstock="true"><path
         transform="scale(0.4)"
         style="fill-rule:evenodd;fill:#b93120;stroke:#ffffff;stroke-width:1pt;stroke-opacity:1;fill-opacity:1"
         d="M 0,-7.0710768 L -7.0710894,0 L 0,7.0710589 L 7.0710462,0 L 0,-7.0710768 z "
         id="path3342" /></marker><rect
       x="-61.871843"
       y="45.961941"
       width="92.984545"
       height="49.851028"
       id="rect3190" /><marker
       style="overflow:visible"
       id="EmptyDiamondM"
       refX="0"
       refY="0"
       orient="auto"
       inkscape:stockid="EmptyDiamondM"
       inkscape:isstock="true"
       inkscape:collect="always"><path
         transform="scale(0.4)"
         style="fill:#ffffff;fill-rule:evenodd;stroke:#000000;stroke-width:1pt;stroke-opacity:1"
         d="M 0,-7.0710768 -7.0710894,0 0,7.0710589 7.0710462,0 Z"
         id="path2933" /></marker><marker
       style="overflow:visible"
       id="DotM"
       refX="0.0"
       refY="0.0"
       orient="auto"
       inkscape:stockid="DotM"
       inkscape:isstock="true"><path
         transform="scale(0.4) translate(7.4, 1)"
         style="fill-rule:evenodd;stroke:#000000;stroke-width:1pt;stroke-opacity:1;fill:#000000;fill-opacity:1"
         d="M -2.5,-1.0 C -2.5,1.7600000 -4.7400000,4.0 -7.5,4.0 C -10.260000,4.0 -12.5,1.7600000 -12.5,-1.0 C -12.5,-3.7600000 -10.260000,-6.0 -7.5,-6.0 C -4.7400000,-6.0 -2.5,-3.7600000 -2.5,-1.0 z "
         id="path2888" /></marker><marker
       style="overflow:visible"
       id="DotL"
       refX="0.0"
       refY="0.0"
       orient="auto"
       inkscape:stockid="DotL"
       inkscape:isstock="true"><path
         transform="scale(0.8) translate(7.4, 1)"
         style="fill-rule:evenodd;stroke:#000000;stroke-width:1pt;stroke-opacity:1;fill:#000000;fill-opacity:1"
         d="M -2.5,-1.0 C -2.5,1.7600000 -4.7400000,4.0 -7.5,4.0 C -10.260000,4.0 -12.5,1.7600000 -12.5,-1.0 C -12.5,-3.7600000 -10.260000,-6.0 -7.5,-6.0 C -4.7400000,-6.0 -2.5,-3.7600000 -2.5,-1.0 z "
         id="path2885" /></marker><marker
       style="overflow:visible;"
       id="Arrow1Lend"
       refX="0.0"
       refY="0.0"
       orient="auto"
       inkscape:stockid="Arrow1Lend"
       inkscape:isstock="true"><path
         transform="scale(0.8) rotate(180) translate(12.5,0)"
         style="fill-rule:evenodd;stroke:#000000;stroke-width:1pt;stroke-opacity:1;fill:#000000;fill-opacity:1"
         d="M 0.0,0.0 L 5.0,-5.0 L -12.5,0.0 L 5.0,5.0 L 0.0,0.0 z "
         id="path2827" /></marker><linearGradient
       id="linearGradient2780"
       inkscape:swatch="solid"><stop
         style="stop-color:#008000;stop-opacity:1;"
         offset="0"
         id="stop2778" /></linearGradient></defs><g
     inkscape:groupmode="layer"
     id="layer2"
     inkscape:label="background"><rect
       style="fill:#1eae1e;fill-opacity:1;stroke-width:0.0470876"
       id="rect280"
       width="5.2916665"
       height="39.6875"
       x="0"
       y="0" /><rect
       style="fill:#1eae1e;fill-opacity:1;stroke-width:0.138189"
       id="rect5422"
       width="130.43958"
       height="2.6458333"
       x="6.471354e-06"
       y="79.904167" /></g><g
     inkscape:groupmode="layer"
     id="layer3"
     inkscape:label="text"><g
       aria-label="PMSExp"
       transform="matrix(0.31620672,0,0,0.31620672,-6.7883207,-23.492718)"
       id="text4483"
       style="font-size:29.3333px;line-height:1.25;letter-spacing:3px;word-spacing:0px;white-space:pre;shape-inside:url(#rect4485);display:inline"><path
         d="m 56.476541,251.48266 q 0,1.94792 -0.88802,3.48047 -0.888019,1.53255 -2.549476,2.3776 -1.647133,0.83073 -3.924475,0.83073 h -5.013015 v 7.10415 H 39.8763 v -20.18096 h 9.066396 q 3.623693,0 5.571608,1.67578 1.962237,1.66145 1.962237,4.71223 z m -4.253901,0.0716 q 0,-3.17969 -3.7526,-3.17969 h -4.368485 v 6.54557 h 4.483068 q 1.747394,0 2.692705,-0.85938 0.945312,-0.87369 0.945312,-2.5065 z"
         style="font-weight:bold;font-family:Arimo;-inkscape-font-specification:'Arimo Bold'"
         id="path884" /><path
         d="m 79.199176,265.27561 v -12.23175 q 0,-0.41537 0,-0.83073 0.01432,-0.41536 0.143229,-3.5664 -1.016926,3.85286 -1.503905,5.37109 l -3.638017,11.25779 h -3.007809 l -3.638016,-11.25779 -1.532551,-5.37109 q 0.171875,3.32291 0.171875,4.39713 v 12.23175 h -3.7526 v -20.18096 h 5.657546 l 3.609371,11.28644 0.315104,1.08854 0.687499,2.70703 0.902343,-3.23697 3.709631,-11.84504 h 5.628899 v 20.18096 z"
         style="font-weight:bold;font-family:Arimo;-inkscape-font-specification:'Arimo Bold'"
         id="path886" /><path
         d="m 106.33326,259.46052 q 0,2.96484 -2.20572,4.54036 -2.19141,1.56119 -6.445309,1.56119 -3.881506,0 -6.087233,-1.375 -2.205726,-1.37499 -2.835934,-4.16796 l 4.082027,-0.67318 q 0.415364,1.60417 1.618487,2.33464 1.203124,0.71614 3.337236,0.71614 4.425776,0 4.425776,-2.6927 0,-0.85938 -0.51562,-1.41797 -0.50131,-0.55859 -1.43229,-0.93099 -0.91667,-0.37239 -3.537761,-0.90234 -2.263018,-0.52995 -3.151038,-0.84505 -0.888019,-0.32943 -1.604164,-0.75912 -0.716145,-0.44401 -1.217447,-1.05989 -0.501301,-0.61589 -0.787759,-1.44661 -0.272136,-0.83073 -0.272136,-1.90495 0,-2.73567 2.048175,-4.18229 2.062498,-1.46093 5.986972,-1.46093 3.752598,0 5.628898,1.17448 1.89063,1.17447 2.4349,3.8815 l -4.09635,0.55859 q -0.31511,-1.30338 -1.28907,-1.96223 -0.95963,-0.65886 -2.764315,-0.65886 -3.838537,0 -3.838537,2.40625 0,0.78776 0.401041,1.28906 0.415364,0.5013 1.217447,0.85938 0.802082,0.34375 3.251298,0.87369 2.907546,0.61589 4.153636,1.14584 1.26042,0.51562 1.99089,1.21744 0.73047,0.6875 1.11718,1.66146 0.38672,0.95963 0.38672,2.22005 z"
         style="font-weight:bold;font-family:Arimo;-inkscape-font-specification:'Arimo Bold'"
         id="path888" /><path
         d="m 112.44133,265.27561 v -20.18096 h 15.86978 v 3.26562 h -11.64452 v 5.07031 h 10.77082 v 3.26562 h -10.77082 v 5.31379 h 12.23176 v 3.26562 z"
         style="font-weight:bold;font-family:Arimo;-inkscape-font-specification:'Arimo Bold'"
         id="path890" /><path
         d="m 144.77463,265.27561 -3.60937,-5.61457 -3.63802,5.61457 h -4.28255 l 5.67187,-8.0065 -5.39973,-7.49087 h 4.33984 l 3.30859,5.0703 3.29427,-5.0703 h 4.36848 l -5.39973,7.44791 5.71483,8.04946 z"
         style="font-weight:bold;font-family:Arimo;-inkscape-font-specification:'Arimo Bold'"
         id="path892" /><path
         d="m 169.07279,257.45531 q 0,3.88151 -1.5612,6.0013 -1.54687,2.10546 -4.38281,2.10546 -1.63281,0 -2.85025,-0.70182 -1.20313,-0.71614 -1.84766,-2.04817 h -0.0859 q 0.0859,0.42968 0.0859,2.60676 v 5.94401 h -4.02473 v -18.01821 q 0,-2.1914 -0.11458,-3.5664 h 3.91015 q 0.0716,0.25781 0.11458,1.01692 0.0573,0.75912 0.0573,1.50391 h 0.0573 q 1.36068,-2.85026 4.95573,-2.85026 2.70702,0 4.19661,2.09114 1.48958,2.07682 1.48958,5.91536 z m -4.19661,0 q 0,-5.21353 -3.19401,-5.21353 -1.60416,0 -2.46354,1.40364 -0.84505,1.40364 -0.84505,3.92447 0,2.50651 0.84505,3.88151 0.85938,1.36068 2.4349,1.36068 3.22265,0 3.22265,-5.35677 z"
         style="font-weight:bold;font-family:Arimo;-inkscape-font-specification:'Arimo Bold'"
         id="path894" /></g><g
       aria-label="An automatic pointing tool"
       transform="matrix(0.22282622,0,0,0.22282622,-44.151211,37.602334)"
       id="text4575"
       style="font-weight:bold;font-size:13.3333px;line-height:1.25;font-family:Arimo;-inkscape-font-specification:'Arimo Bold';letter-spacing:0.744626px;word-spacing:0px;white-space:pre;shape-inside:url(#rect4577);display:inline;fill:#0f700f"><path
         d="m 229.25519,125.88503 -0.8138,-2.34375 h -3.49609 l -0.8138,2.34375 h -1.92056 l 3.34634,-9.17316 h 2.26562 l 3.33333,9.17316 z m -2.5651,-7.7604 -0.0391,0.14323 q -0.0651,0.23437 -0.15625,0.53385 -0.0911,0.29948 -1.11979,3.29427 h 2.63671 l -0.90494,-2.63672 -0.27995,-0.88541 z"
         id="path897" /><path
         d="m 237.74719,125.88503 v -3.95181 q 0,-1.85547 -1.25651,-1.85547 -0.66406,0 -1.07421,0.57292 -0.40365,0.5664 -0.40365,1.45833 v 3.77603 h -1.82942 v -5.46874 q 0,-0.5664 -0.0195,-0.92447 -0.013,-0.36459 -0.0326,-0.65104 h 1.74479 q 0.0195,0.12369 0.0521,0.66406 0.0325,0.53385 0.0325,0.73567 h 0.026 q 0.37109,-0.80729 0.93099,-1.17187 0.55989,-0.36458 1.33463,-0.36458 1.11979,0 1.71875,0.6901 0.59895,0.6901 0.59895,2.01822 v 4.47265 z"
         id="path899" /><path
         d="m 248.14918,126.01524 q -1.02213,0 -1.59505,-0.55339 -0.57291,-0.55989 -0.57291,-1.569 0,-1.09375 0.70963,-1.66667 0.71614,-0.57291 2.07031,-0.58593 l 1.51692,-0.026 v -0.35808 q 0,-0.6901 -0.24088,-1.02213 -0.24089,-0.33854 -0.78776,-0.33854 -0.50781,0 -0.7487,0.23437 -0.23437,0.22787 -0.29297,0.76172 l -1.90754,-0.0911 q 0.17578,-1.02865 0.93749,-1.55599 0.76823,-0.53385 2.08984,-0.53385 1.33464,0 2.05729,0.65755 0.72265,0.65755 0.72265,1.86848 v 2.5651 q 0,0.59245 0.13021,0.82031 0.13672,0.22135 0.44922,0.22135 0.20833,0 0.40364,-0.0391 v 0.98958 q -0.16276,0.0391 -0.29296,0.0716 -0.13021,0.0326 -0.26042,0.0521 -0.13021,0.0195 -0.27995,0.0326 -0.14323,0.013 -0.33854,0.013 -0.6901,0 -1.02213,-0.33854 -0.32552,-0.33854 -0.39062,-0.99609 h -0.0391 q -0.76822,1.38672 -2.3177,1.38672 z m 2.1289,-3.39192 -0.9375,0.013 q -0.63802,0.026 -0.90494,0.14323 -0.26693,0.11067 -0.41016,0.34505 -0.13672,0.23437 -0.13672,0.625 0,0.5013 0.22787,0.74869 0.23437,0.24089 0.61849,0.24089 0.42968,0 0.78124,-0.23438 0.35808,-0.23437 0.5599,-0.64453 0.20182,-0.41666 0.20182,-0.8789 z"
         id="path901" /><path
         d="m 256.40681,118.84078 v 3.95181 q 0,1.85546 1.24999,1.85546 0.66407,0 1.06771,-0.5664 0.41016,-0.57292 0.41016,-1.46484 v -3.77603 h 1.82942 v 5.46873 q 0,0.89844 0.0521,1.57552 h -1.74479 q -0.0781,-0.9375 -0.0781,-1.39974 h -0.0326 q -0.36459,0.80078 -0.93099,1.16536 -0.55989,0.36459 -1.33463,0.36459 -1.11979,0 -1.71875,-0.6836 -0.59895,-0.6901 -0.59895,-2.01822 v -4.47264 z"
         id="path903" /><path
         d="m 265.37407,126.00222 q -0.80729,0 -1.24349,-0.4362 -0.43619,-0.44271 -0.43619,-1.33463 v -4.15364 h -0.89193 v -1.23697 h 0.98307 l 0.57292,-1.65365 h 1.14583 v 1.65365 h 1.33463 v 1.23697 h -1.33463 v 3.65885 q 0,0.51432 0.19531,0.76171 0.19531,0.24089 0.60547,0.24089 0.21484,0 0.61197,-0.0911 v 1.13281 q -0.67708,0.22136 -1.54296,0.22136 z"
         id="path905" /><path
         d="m 275.4481,122.35639 q 0,1.71224 -0.95052,2.6888 -0.95052,0.97005 -2.6302,0.97005 -1.64713,0 -2.58463,-0.97656 -0.9375,-0.97656 -0.9375,-2.68229 0,-1.69921 0.9375,-2.66926 0.9375,-0.97656 2.62369,-0.97656 1.72526,0 2.6302,0.94401 0.91146,0.93749 0.91146,2.70181 z m -1.91406,0 q 0,-1.25651 -0.41015,-1.82291 -0.41016,-0.56641 -1.19141,-0.56641 -1.66666,0 -1.66666,2.38932 0,1.17838 0.40365,1.79687 0.41015,0.61198 1.17838,0.61198 1.68619,0 1.68619,-2.40885 z"
         id="path907" /><path
         d="m 281.79167,125.88503 v -3.95181 q 0,-1.85547 -1.06771,-1.85547 -0.55338,0 -0.90494,0.56641 -0.34505,0.5664 -0.34505,1.46484 v 3.77603 h -1.82942 v -5.46874 q 0,-0.5664 -0.0195,-0.92447 -0.013,-0.36459 -0.0325,-0.65104 h 1.74479 q 0.0195,0.12369 0.0521,0.66406 0.0326,0.53385 0.0326,0.73567 h 0.026 q 0.33854,-0.80729 0.83984,-1.17187 0.50781,-0.36458 1.21093,-0.36458 1.61458,0 1.95963,1.53645 h 0.0391 q 0.35807,-0.82031 0.85937,-1.17838 0.5013,-0.35807 1.27604,-0.35807 1.02864,0 1.569,0.70312 0.54037,0.69661 0.54037,2.0052 v 4.47265 h -1.81641 v -3.95181 q 0,-1.85547 -1.0677,-1.85547 -0.53385,0 -0.87891,0.52083 -0.33854,0.51433 -0.37109,1.42578 v 3.86067 z"
         id="path909" /><path
         d="m 291.87221,126.01524 q -1.02213,0 -1.59505,-0.55339 -0.57291,-0.55989 -0.57291,-1.569 0,-1.09375 0.70963,-1.66667 0.71614,-0.57291 2.07031,-0.58593 l 1.51692,-0.026 v -0.35808 q 0,-0.6901 -0.24089,-1.02213 -0.24088,-0.33854 -0.78775,-0.33854 -0.50781,0 -0.7487,0.23437 -0.23437,0.22787 -0.29297,0.76172 l -1.90754,-0.0911 q 0.17578,-1.02865 0.93749,-1.55599 0.76823,-0.53385 2.08984,-0.53385 1.33463,0 2.05729,0.65755 0.72265,0.65755 0.72265,1.86848 v 2.5651 q 0,0.59245 0.13021,0.82031 0.13672,0.22135 0.44922,0.22135 0.20833,0 0.40364,-0.0391 v 0.98958 q -0.16276,0.0391 -0.29297,0.0716 -0.1302,0.0326 -0.26041,0.0521 -0.13021,0.0195 -0.27995,0.0326 -0.14323,0.013 -0.33854,0.013 -0.6901,0 -1.02213,-0.33854 -0.32552,-0.33854 -0.39063,-0.99609 h -0.0391 q -0.76823,1.38672 -2.3177,1.38672 z m 2.1289,-3.39192 -0.9375,0.013 q -0.63802,0.026 -0.90494,0.14323 -0.26693,0.11067 -0.41016,0.34505 -0.13672,0.23437 -0.13672,0.625 0,0.5013 0.22787,0.74869 0.23437,0.24089 0.61848,0.24089 0.42969,0 0.78125,-0.23438 0.35807,-0.23437 0.5599,-0.64453 0.20182,-0.41666 0.20182,-0.8789 z"
         id="path911" /><path
         d="m 300.20796,126.00222 q -0.80729,0 -1.24348,-0.4362 -0.4362,-0.44271 -0.4362,-1.33463 v -4.15364 h -0.89193 v -1.23697 h 0.98308 l 0.57291,-1.65365 h 1.14583 v 1.65365 h 1.33463 v 1.23697 h -1.33463 v 3.65885 q 0,0.51432 0.19531,0.76171 0.19531,0.24089 0.60547,0.24089 0.21484,0 0.61198,-0.0911 v 1.13281 q -0.67708,0.22136 -1.54297,0.22136 z"
         id="path913" /><path
         d="m 303.5893,117.57125 v -1.34766 h 1.82942 v 1.34766 z m 0,8.31378 v -7.04425 h 1.82942 v 7.04425 z"
         id="path915" /><path
         d="m 310.97453,126.01524 q -1.60156,0 -2.47395,-0.95052 -0.87239,-0.95703 -0.87239,-2.66276 0,-1.74478 0.8789,-2.71483 0.8789,-0.97656 2.49348,-0.97656 1.24349,0 2.05729,0.625 0.8138,0.62499 1.02213,1.72525 l -1.84244,0.0911 q -0.0781,-0.54037 -0.39063,-0.85938 -0.31249,-0.32552 -0.88541,-0.32552 -1.41276,0 -1.41276,2.36328 0,2.43489 1.4388,2.43489 0.52083,0 0.8724,-0.32552 0.35156,-0.33203 0.43619,-0.98307 l 1.83594,0.0846 q -0.0977,0.72266 -0.52084,1.28906 -0.41666,0.56641 -1.10025,0.87891 -0.6836,0.30599 -1.53646,0.30599 z"
         id="path917" /><path
         d="m 327.31401,122.33035 q 0,1.76432 -0.70964,2.72786 -0.70312,0.95703 -1.99218,0.95703 -0.74219,0 -1.29557,-0.31901 -0.54687,-0.32552 -0.83984,-0.93099 h -0.0391 q 0.0391,0.19531 0.0391,1.18489 v 2.70182 h -1.82942 v -8.19008 q 0,-0.9961 -0.0521,-1.62109 h 1.77734 q 0.0326,0.11718 0.0521,0.46223 0.026,0.34506 0.026,0.6836 h 0.026 q 0.61849,-1.29557 2.2526,-1.29557 1.23046,0 1.90755,0.95051 0.67708,0.94401 0.67708,2.6888 z m -1.90755,0 q 0,-2.36979 -1.45182,-2.36979 -0.72916,0 -1.11979,0.63802 -0.38411,0.63802 -0.38411,1.78385 0,1.13932 0.38411,1.76432 0.39063,0.61849 1.10677,0.61849 1.46484,0 1.46484,-2.43489 z"
         id="path919" /><path
         d="m 336.22919,122.35639 q 0,1.71224 -0.95052,2.6888 -0.95052,0.97005 -2.6302,0.97005 -1.64714,0 -2.58463,-0.97656 -0.9375,-0.97656 -0.9375,-2.68229 0,-1.69921 0.9375,-2.66926 0.93749,-0.97656 2.62369,-0.97656 1.72525,0 2.6302,0.94401 0.91146,0.93749 0.91146,2.70181 z m -1.91406,0 q 0,-1.25651 -0.41016,-1.82291 -0.41015,-0.56641 -1.1914,-0.56641 -1.66666,0 -1.66666,2.38932 0,1.17838 0.40364,1.79687 0.41016,0.61198 1.17838,0.61198 1.6862,0 1.6862,-2.40885 z"
         id="path921" /><path
         d="m 338.42563,117.57125 v -1.34766 h 1.82942 v 1.34766 z m 0,8.31378 v -7.04425 h 1.82942 v 7.04425 z"
         id="path923" /><path
         d="m 347.43847,125.88503 v -3.95181 q 0,-1.85547 -1.25651,-1.85547 -0.66406,0 -1.07422,0.57292 -0.40364,0.5664 -0.40364,1.45833 v 3.77603 h -1.82943 v -5.46874 q 0,-0.5664 -0.0195,-0.92447 -0.013,-0.36459 -0.0326,-0.65104 h 1.74479 q 0.0195,0.12369 0.0521,0.66406 0.0326,0.53385 0.0326,0.73567 h 0.026 q 0.37109,-0.80729 0.93098,-1.17187 0.5599,-0.36458 1.33463,-0.36458 1.11979,0 1.71875,0.6901 0.59896,0.6901 0.59896,2.01822 v 4.47265 z"
         id="path925" /><path
         d="m 353.56719,126.00222 q -0.80729,0 -1.24348,-0.4362 -0.4362,-0.44271 -0.4362,-1.33463 v -4.15364 h -0.89193 v -1.23697 h 0.98308 l 0.57291,-1.65365 h 1.14583 v 1.65365 h 1.33463 v 1.23697 h -1.33463 v 3.65885 q 0,0.51432 0.19531,0.76171 0.19531,0.24089 0.60547,0.24089 0.21484,0 0.61198,-0.0911 v 1.13281 q -0.67708,0.22136 -1.54297,0.22136 z"
         id="path927" /><path
         d="m 356.94853,117.57125 v -1.34766 h 1.82943 v 1.34766 z m 0,8.31378 v -7.04425 h 1.82943 v 7.04425 z"
         id="path929" /><path
         d="m 365.96136,125.88503 v -3.95181 q 0,-1.85547 -1.25651,-1.85547 -0.66406,0 -1.07421,0.57292 -0.40365,0.5664 -0.40365,1.45833 v 3.77603 h -1.82942 v -5.46874 q 0,-0.5664 -0.0195,-0.92447 -0.013,-0.36459 -0.0326,-0.65104 h 1.74478 q 0.0195,0.12369 0.0521,0.66406 0.0326,0.53385 0.0326,0.73567 h 0.026 q 0.37109,-0.80729 0.93099,-1.17187 0.55989,-0.36458 1.33463,-0.36458 1.11979,0 1.71875,0.6901 0.59895,0.6901 0.59895,2.01822 v 4.47265 z"
         id="path931" /><path
         d="m 373.23593,128.71054 q -1.28906,0 -2.07682,-0.49479 -0.78125,-0.48828 -0.96354,-1.39973 l 1.82942,-0.21485 q 0.0977,0.42318 0.41667,0.66406 0.32552,0.24089 0.84635,0.24089 0.76172,0 1.11328,-0.46875 0.35156,-0.46875 0.35156,-1.39323 v -0.37109 l 0.013,-0.69661 h -0.013 q -0.60547,1.29557 -2.26562,1.29557 -1.23046,0 -1.90755,-0.92448 -0.67708,-0.92448 -0.67708,-2.64322 0,-1.72526 0.69661,-2.66276 0.69662,-0.93749 2.02474,-0.93749 1.53645,0 2.1289,1.26953 h 0.0325 q 0,-0.22787 0.026,-0.61849 0.0326,-0.39063 0.0651,-0.51432 h 1.73176 q -0.0391,0.70312 -0.0391,1.6276 v 5.20181 q 0,1.5039 -0.85286,2.27213 -0.85286,0.76822 -2.48046,0.76822 z m 1.52994,-6.44529 q 0,-1.08724 -0.39062,-1.69271 -0.38412,-0.61198 -1.10026,-0.61198 -1.46484,0 -1.46484,2.34375 0,2.29817 1.45182,2.29817 0.72916,0 1.11328,-0.60547 0.39062,-0.61198 0.39062,-1.73176 z"
         id="path933" /><path
         d="m 385.42828,126.00222 q -0.80729,0 -1.24349,-0.4362 -0.4362,-0.44271 -0.4362,-1.33463 v -4.15364 h -0.89192 v -1.23697 h 0.98307 l 0.57291,-1.65365 h 1.14583 v 1.65365 h 1.33464 v 1.23697 h -1.33464 v 3.65885 q 0,0.51432 0.19532,0.76171 0.19531,0.24089 0.60546,0.24089 0.21485,0 0.61198,-0.0911 v 1.13281 q -0.67708,0.22136 -1.54296,0.22136 z"
         id="path935" /><path
         d="m 395.50229,122.35639 q 0,1.71224 -0.95051,2.6888 -0.95052,0.97005 -2.63021,0.97005 -1.64713,0 -2.58462,-0.97656 -0.9375,-0.97656 -0.9375,-2.68229 0,-1.69921 0.9375,-2.66926 0.93749,-0.97656 2.62369,-0.97656 1.72525,0 2.6302,0.94401 0.91145,0.93749 0.91145,2.70181 z m -1.91405,0 q 0,-1.25651 -0.41016,-1.82291 -0.41015,-0.56641 -1.1914,-0.56641 -1.66666,0 -1.66666,2.38932 0,1.17838 0.40364,1.79687 0.41016,0.61198 1.17838,0.61198 1.6862,0 1.6862,-2.40885 z"
         id="path937" /><path
         d="m 404.39144,122.35639 q 0,1.71224 -0.95052,2.6888 -0.95052,0.97005 -2.6302,0.97005 -1.64713,0 -2.58463,-0.97656 -0.9375,-0.97656 -0.9375,-2.68229 0,-1.69921 0.9375,-2.66926 0.9375,-0.97656 2.62369,-0.97656 1.72526,0 2.6302,0.94401 0.91146,0.93749 0.91146,2.70181 z m -1.91406,0 q 0,-1.25651 -0.41015,-1.82291 -0.41016,-0.56641 -1.19141,-0.56641 -1.66666,0 -1.66666,2.38932 0,1.17838 0.40365,1.79687 0.41015,0.61198 1.17838,0.61198 1.68619,0 1.68619,-2.40885 z"
         id="path939" /><path
         d="m 406.58788,125.88503 v -9.66144 h 1.82942 v 9.66144 z"
         id="path941" /></g><g
       aria-label="Setup"
       transform="matrix(0.26458333,0,0,0.26458333,28.462713,-2.3152172)"
       id="text5335"
       style="font-weight:bold;font-size:12px;line-height:1.25;font-family:Arimo;-inkscape-font-specification:'Arimo Bold';letter-spacing:0px;word-spacing:0px;white-space:pre;shape-inside:url(#rect5337);display:inline;fill:#4d4d4d"><path
         d="m 44.207031,267.89694 q 0,1.21289 -0.902344,1.85743 -0.896484,0.63867 -2.636718,0.63867 -1.587891,0 -2.490235,-0.5625 -0.902343,-0.5625 -1.160156,-1.70508 l 1.669922,-0.27539 q 0.169922,0.65625 0.662109,0.95508 0.492188,0.29297 1.365235,0.29297 1.810547,0 1.810547,-1.10157 0,-0.35156 -0.210938,-0.58008 -0.205078,-0.22851 -0.585937,-0.38085 -0.375,-0.15235 -1.447266,-0.36915 -0.925781,-0.21679 -1.289063,-0.3457 -0.363281,-0.13476 -0.65625,-0.31055 -0.292968,-0.18164 -0.498046,-0.43359 -0.205079,-0.25195 -0.322266,-0.5918 -0.111328,-0.33984 -0.111328,-0.77929 0,-1.11914 0.83789,-1.71094 0.84375,-0.59766 2.449219,-0.59766 1.535156,0 2.302735,0.48047 0.773437,0.48047 0.996093,1.58789 l -1.675781,0.22852 q -0.128906,-0.5332 -0.527344,-0.80274 -0.392578,-0.26953 -1.130859,-0.26953 -1.570313,0 -1.570313,0.98438 0,0.32226 0.164063,0.52734 0.169922,0.20508 0.498047,0.35156 0.328125,0.14063 1.330078,0.35743 1.189453,0.25195 1.699219,0.46875 0.515625,0.21093 0.814453,0.49804 0.298828,0.28125 0.457031,0.67969 0.158203,0.39258 0.158203,0.9082 z"
         id="path944" /><path
         d="m 48.109375,270.39304 q -1.429688,0 -2.197266,-0.84375 -0.767578,-0.84961 -0.767578,-2.47266 0,-1.57031 0.779297,-2.41406 0.779297,-0.84375 2.208984,-0.84375 1.365235,0 2.085938,0.9082 0.720703,0.90235 0.720703,2.64844 v 0.0469 h -4.066406 q 0,0.92579 0.339844,1.40039 0.345703,0.46875 0.978515,0.46875 0.873047,0 1.101563,-0.75585 l 1.552734,0.13476 q -0.673828,1.72266 -2.736328,1.72266 z m 0,-5.53711 q -0.580078,0 -0.896484,0.40429 -0.310547,0.4043 -0.328125,1.13086 h 2.460937 q -0.04687,-0.76757 -0.369141,-1.14843 -0.322265,-0.38672 -0.867187,-0.38672 z"
         id="path946" /><path
         d="m 53.810547,270.38132 q -0.726563,0 -1.119141,-0.39258 -0.392578,-0.39844 -0.392578,-1.20117 v -3.73828 h -0.802734 v -1.11328 h 0.884765 l 0.515625,-1.48829 h 1.03125 v 1.48829 h 1.201172 v 1.11328 h -1.201172 v 3.29297 q 0,0.46289 0.175782,0.68554 0.175781,0.2168 0.544921,0.2168 0.19336,0 0.550782,-0.082 v 1.01953 q -0.609375,0.19922 -1.388672,0.19922 z"
         id="path948" /><path
         d="m 57.736328,263.93601 v 3.55664 q 0,1.66992 1.125,1.66992 0.597656,0 0.960938,-0.50977 0.36914,-0.51562 0.36914,-1.31836 v -3.39843 h 1.646485 v 4.92187 q 0,0.80859 0.04687,1.41797 h -1.570313 q -0.07031,-0.84375 -0.07031,-1.25977 h -0.0293 q -0.328125,0.72071 -0.837891,1.04883 -0.503906,0.32813 -1.201172,0.32813 -1.007812,0 -1.546875,-0.61524 -0.539062,-0.62109 -0.539062,-1.8164 v -4.02539 z"
         id="path950" /><path
         d="m 69.513672,267.07663 q 0,1.58789 -0.638672,2.45508 -0.632813,0.86133 -1.792969,0.86133 -0.667969,0 -1.166015,-0.28711 -0.492188,-0.29297 -0.75586,-0.83789 H 65.125 q 0.03516,0.17578 0.03516,1.0664 v 2.43164 h -1.646484 v -7.37109 q 0,-0.89648 -0.04687,-1.45898 h 1.599609 q 0.0293,0.10546 0.04687,0.41601 0.02344,0.31055 0.02344,0.61524 h 0.02344 q 0.556641,-1.16602 2.027344,-1.16602 1.107422,0 1.716797,0.85547 0.609375,0.84961 0.609375,2.41992 z m -1.716797,0 q 0,-2.13281 -1.306641,-2.13281 -0.65625,0 -1.007812,0.57422 -0.345703,0.57422 -0.345703,1.60547 0,1.02539 0.345703,1.58789 0.351562,0.55664 0.996094,0.55664 1.318359,0 1.318359,-2.19141 z"
         id="path952" /></g></g><g
     inkscape:label="logo"
     inkscape:groupmode="layer"
     id="layer1"><g
       id="g1037"
       transform="matrix(0.13003206,0,0,0.13003206,12.144463,20.603258)"><g
         id="layer2-6"
         inkscape:label="Cube"
         style="display:inline"><rect
           style="fill:#7eea7e;fill-opacity:1;fill-rule:evenodd;stroke:#000000;stroke-width:5;stroke-linejoin:round;stroke-miterlimit:4;stroke-dasharray:none"
           id="rect834"
           width="160.31218"
           height="160.31218"
           x="24.837782"
           y="67.396446" /><path
           id="rect2816"
           style="fill:#17d99c;fill-opacity:1;fill-rule:evenodd;stroke:#000000;stroke-width:5;stroke-linejoin:round;stroke-miterlimit:4;stroke-dasharray:none"
           d="M 88.730374,31.843305 H 228.87147 V 67.396446 H 24.837779 Z"
           sodipodi:nodetypes="ccccc" /><path
           id="rect2812"
           style="fill:#3498ad;fill-opacity:1;fill-rule:evenodd;stroke:#000000;stroke-width:5;stroke-linejoin:round;stroke-miterlimit:4;stroke-dasharray:none"
           d="m 185.14997,67.396446 43.7215,-35.552872 V 192.1555 l -43.7215,35.55313 z"
           sodipodi:nodetypes="ccccc" /></g><g
         id="layer3-7"
         inkscape:label="Line"
         style="display:inline"><path
           style="fill:none;stroke:#000000;stroke-width:5.6;stroke-linecap:butt;stroke-linejoin:miter;stroke-miterlimit:4;stroke-dasharray:none;stroke-opacity:1;marker-mid:url(#EmptyDiamondM);paint-order:normal"
           d="M 0,192 27.930719,138.37111 75.306871,150.74547 130.10765,93.11626 176.77669,146.85639 226.27418,62.71068 256,92"
           id="path2822"
           sodipodi:nodetypes="ccccccc" /></g><g
         id="layer4"
         inkscape:label="Cursor"
         style="display:inline"><path
           id="rect3179"
           style="fill:#ffffff;fill-opacity:1;fill-rule:evenodd;stroke:#000000;stroke-width:4.35884;stroke-linejoin:round;stroke-miterlimit:4;stroke-dasharray:none;stroke-opacity:1;paint-order:normal"
           d="m 137.38162,114.4263 1.77513,106.37387 24.57378,-21.94947 24.56434,46.0131 26.79838,-13.53814 -24.56438,-46.01307 29.02295,-5.12676 z"
           sodipodi:nodetypes="cccccccc" /></g></g></g><metadata
     id="metadata48"><rdf:RDF><cc:Work
         rdf:about=""><dc:title>PMSExp dialog</dc:title><dc:date>2023-07-16</dc:date><dc:creator><cc:Agent><dc:title>Yona Rossillol‑‑Laruelle &lt;y_rossillollaruelle@stu-lisaa.com&gt;</dc:title></cc:Agent></dc:creator><dc:publisher><cc:Agent><dc:title>Mattéo Rossillol‑‑Laruelle &lt;beatussum@protonmail.com&gt;</dc:title></cc:Agent></dc:publisher><dc:source>https://github.com/beatussum/pmsexp</dc:source><dc:identifier>dialog</dc:identifier><dc:language>English</dc:language><dc:description>The WiX Toolset dialog of PMSExp.</dc:description><dc:contributor><cc:Agent><dc:title>Mattéo Rossillol‑‑Laruelle &lt;beatussum@protonmail.com&gt;</dc:title></cc:Agent></dc:contributor></cc:Work></rdf:RDF></metadata></svg>
